PathFileType	3	(X/Y/Z)	D:\minhoCalibration\240510\subject2_KPNP\preferred\preferred10.trc
DataRate	CameraRate	NumFrames	NumMarkers	Units	OrigDataRate	OrigDataStartFrame	OrigNumFrames
200.0	200.0	15	10	mm	200.0	365	172	
Frame#	Time	Left_Ankle_Outer1			Left_Ankle_Inner1			Left_Knee_Outer1			Left_Knee_Inner1			Left_Wrist1			Right_Wrist1			Right_Knee_Inner1			Right_Knee_Outer1			Right_Ankle_Inner1			Right_Ankle_Outer1			
		X1	Y1	Z1	X2	Y2	Z2	X3	Y3	Z3	X4	Y4	Z4	X5	Y5	Z5	X6	Y6	Z6	X7	Y7	Z7	X8	Y8	Z8	X9	Y9	Z9	X10	Y10	Z10	
365	1.815	-646.88745	136.45871	-678.86572	-649.25574	141.19096	-623.8891	-468.14145	551.80914	-690.26971	-490.47156	529.56604	-593.89886	-607.07471	954.99054	-758.32819	-610.66205	1187.7869	-492.75336	-356.7056	1012.236	-164.65286	-407.6748	1081.8202	-153.86331	-315.668	929.1059	239.62979	-341.39023	1022.6727	257.37991
366	1.82	-646.41455	137.83493	-676.56372	-648.78467	141.41579	-622.89209	-466.70853	553.09088	-686.16278	-491.39676	531.04657	-590.47974	-605.20081	956.32825	-757.76678	-612.28046	1188.2085	-492.09381	-365.24844	1007.1081	-159.61073	-414.13785	1079.7402	-149.99023	-318.35718	925.45422	241.71478	-344.06769	1018.8293	261.25513
367	1.825	-646.01117	139.28287	-674.60455	-648.88776	143.54395	-618.83313	-465.4834	554.19031	-682.33167	-491.58682	532.54224	-587.50964	-603.14703	957.77704	-757.10992	-613.67462	1188.0015	-491.46481	-370.63406	1002.975	-158.05719	-420.71799	1077.9968	-146.09026	-321.84293	920.81683	243.4313	-346.3472	1014.0789	263.91837
368	1.83	-645.6004	140.26724	-672.38336	-649.09808	143.75096	-616.93982	-464.51968	555.17999	-678.74268	-491.11279	533.90765	-584.92194	-600.84326	959.32983	-756.53094	-615.18683	1187.6365	-490.5556	-385.83737	996.341	-150.53224	-426.51068	1076.9323	-142.1003	-326.45853	915.40051	244.7888	-348.67007	1008.8917	266.27158
369	1.835	-645.22833	141.09271	-670.31256	-648.95654	144.04518	-615.11157	-463.78772	555.93481	-675.552	-490.14813	534.94006	-582.52899	-598.45776	960.92682	-755.94775	-617.07465	1187.4902	-489.67795	-395.68512	991.80286	-145.66344	-431.27493	1075.568	-137.88539	-331.74854	909.51611	245.49466	-351.48175	1003.1905	268.28812
370	1.84	-644.69708	141.42786	-668.12659	-648.7876	143.8654	-614.19098	-463.01208	556.73444	-672.85236	-488.88461	535.6535	-580.43286	-595.93506	962.61133	-755.27899	-619.08936	1186.9685	-488.647	-402.37549	988.25952	-144.2832	-434.91653	1073.8461	-133.7364	-337.66452	902.89679	245.83517	-356.16937	996.82104	270.12869
371	1.845	-644.28986	142.34642	-666.96075	-648.72852	143.99277	-613.01587	-463.26138	556.53003	-670.2514	-487.64359	536.06592	-578.50665	-593.32233	964.39374	-754.71893	-621.52979	1186.4023	-487.46771	-407.54648	984.922	-142.28355	-437.55997	1071.7094	-130.22809	-344.09625	896.24652	246.56465	-363.03668	989.46588	272.09531
372	1.85	-643.75439	142.97289	-665.82953	-648.89612	144.8922	-610.76874	-463.32147	556.69983	-667.95734	-486.57413	536.09894	-576.7428	-590.64069	966.31641	-754.1488	-624.14319	1185.8048	-486.99002	-411.71774	981.15924	-140.8316	-439.59128	1069.2527	-127.5523	-351.44232	888.63354	247.53976	-371.61414	981.02844	274.15012
373	1.855	-643.20502	143.51648	-664.84186	-648.26831	145.77257	-609.39484	-463.43015	556.40912	-666.36072	-485.89911	535.79242	-575.02948	-587.98047	968.23236	-753.58765	-627.62848	1185.8046	-485.17627	-415.11646	978.00757	-139.85823	-441.54044	1066.6995	-125.79402	-359.9343	880.3374	248.48647	-381.23648	972.22858	276.05841
374	1.86	-642.64728	143.98459	-664.13605	-648.12793	144.73402	-610.53888	-464.58542	555.19983	-664.26459	-485.74011	535.27002	-573.33368	-585.1795	970.16901	-753.10822	-631.20276	1186.2455	-483.92606	-417.58807	975.9552	-139.18864	-443.69254	1064.1155	-124.83186	-369.34943	871.84619	249.34239	-392.09705	963.2522	277.62115
375	1.865	-642.14893	144.43742	-663.58081	-648.27124	146.34248	-607.67334	-465.22263	554.29321	-662.46594	-486.05389	534.64502	-571.59174	-582.34973	971.95837	-752.63245	-635.07886	1187.0145	-482.90326	-419.42752	973.90387	-138.54253	-446.009	1061.5897	-124.49426	-378.81036	863.13831	249.4978	-403.75439	953.66003	278.87234
376	1.87	-641.80115	144.79539	-663.00897	-648.47577	146.36507	-607.18903	-465.48398	553.61554	-660.8006	-486.96719	533.99335	-569.75476	-579.39594	973.66541	-752.19177	-638.99323	1187.6449	-482.25836	-420.95862	971.46594	-137.8671	-448.49014	1058.9823	-124.48256	-389.89664	853.79413	249.62405	-416.04514	943.69073	279.92581
377	1.875	-641.56824	145.06818	-662.56525	-648.58136	145.15269	-608.68848	-466.47961	552.21698	-658.51312	-488.36972	533.3725	-567.85614	-576.43634	975.16248	-751.43219	-643.03564	1188.1636	-481.85989	-421.48834	970.31299	-136.74338	-451.18295	1056.2908	-124.50118	-402.02075	843.37329	249.00986	-428.50702	932.75659	280.4155
378	1.88	-641.43243	145.14732	-662.12115	-648.93799	144.92699	-608.34808	-466.81741	551.33386	-656.24768	-489.91074	533.00793	-565.86713	-573.5448	976.32092	-750.46643	-646.79309	1188.2009	-481.60828	-421.47873	968.76074	-136.14722	-453.73868	1053.4768	-124.39188	-414.7298	832.68103	247.81543	-441.8573	921.64166	280.6763
379	1.885	-641.3537	145.11674	-661.60394	-649.53046	145.31885	-606.89362	-466.853	550.79828	-653.73407	-491.86978	532.60822	-563.55969	-570.69366	977.32208	-749.20068	-650.45074	1187.9283	-481.39185	-423.01474	966.13788	-135.0345	-455.97455	1050.7754	-124.00495	-428.22714	821.88086	246.03357	-455.06439	909.90948	280.04147
